<svg width="48" height="48" viewBox="0 0 48 48" fill="none" xmlns="http://www.w3.org/2000/svg">
<rect y="0.128052" width="48" height="47.5271" fill="#323238"/>
<path d="M36.1462 23.964C36.1462 17.3612 30.7416 12.0098 24.0731 12.0098C17.4046 12.0098 12 17.3612 12 23.964C12 29.9318 16.4142 34.8769 22.1867 35.7734V27.4195H19.1212V23.964H22.1867V21.3304C22.1867 18.3348 23.9882 16.6794 26.7471 16.6794C28.0676 16.6794 29.4494 16.9129 29.4494 16.9129V19.8548H27.9261C26.4264 19.8548 25.9595 20.777 25.9595 21.7226V23.964H29.3079L28.7726 27.4195H25.9595V35.7734C31.732 34.8769 36.1462 29.9318 36.1462 23.964Z" fill="white"/>
</svg>
