<svg width="48" height="48" viewBox="0 0 48 48" fill="none" xmlns="http://www.w3.org/2000/svg">
<rect y="0.128052" width="48" height="47.5271" fill="#323238"/>
<g clip-path="url(#clip0_61385:205)">
<path d="M36.6849 16.8075C35.7603 17.1942 34.7804 17.4493 33.7769 17.5645C34.8352 16.9649 35.627 16.0217 36.0048 14.9105C35.0115 15.472 33.9234 15.8672 32.7882 16.0786C32.0948 15.3742 31.1931 14.8838 30.2007 14.6716C29.2084 14.4594 28.1715 14.5352 27.2254 14.8891C26.2792 15.2429 25.4677 15.8585 24.8968 16.6554C24.3259 17.4523 24.022 18.3935 24.0248 19.3563C24.0229 19.7248 24.0668 20.0921 24.1556 20.4508C22.1396 20.3563 20.1674 19.8604 18.3677 18.9955C16.5679 18.1306 14.9812 16.9162 13.7111 15.4315C13.0631 16.4885 12.8653 17.7395 13.1579 18.9297C13.4505 20.1199 14.2116 21.1597 15.2861 21.8374C14.4786 21.8185 13.6882 21.6127 12.9841 21.2381V21.2977C12.9836 22.406 13.3885 23.4803 14.1302 24.338C14.8718 25.1957 15.9043 25.784 17.0523 26.0028C16.6174 26.1145 16.1687 26.171 15.7181 26.171C15.3985 26.1716 15.0797 26.1419 14.7664 26.0822C15.09 27.0354 15.7204 27.869 16.5694 28.4663C17.4184 29.0637 18.4434 29.3949 19.5011 29.4137C17.7065 30.7487 15.489 31.4725 13.2063 31.4683C12.8024 31.4679 12.3989 31.4449 11.9979 31.3994C14.3045 32.8199 16.9986 33.5733 19.7505 33.5674C21.6488 33.58 23.5308 33.2354 25.2871 32.5535C27.0434 31.8717 28.639 30.8663 29.9811 29.5957C31.3232 28.3251 32.385 26.8148 33.1049 25.1524C33.8248 23.49 34.1883 21.7088 34.1743 19.9123C34.1743 19.7044 34.1743 19.4965 34.1583 19.2933C35.1498 18.6132 36.0053 17.7715 36.6849 16.8075V16.8075Z" fill="white"/>
</g>
<defs>
<clipPath id="clip0_61385:205">
<rect width="24.6857" height="19.0108" fill="white" transform="translate(12 14.5557)"/>
</clipPath>
</defs>
</svg>
