<svg width="48" height="48" viewBox="0 0 48 48" fill="none" xmlns="http://www.w3.org/2000/svg">
<rect y="0.128052" width="48" height="47.5271" fill="#323238"/>
<g clip-path="url(#clip0_61385:212)">
<path d="M36.5252 18.7536C36.5698 17.7354 36.219 16.7406 35.5499 15.9875C34.8809 15.2344 33.9481 14.7846 32.9564 14.7367C30.2851 14.6082 27.5608 14.5557 24.7784 14.5557H23.9108C21.1337 14.5557 18.4042 14.6055 15.7328 14.7367C14.7408 14.7879 13.809 15.2402 13.141 15.9948C12.473 16.7494 12.1233 17.7449 12.1684 18.7636C12.0485 20.5294 11.9947 22.288 12 24.0512C12.0053 25.8143 12.0485 27.5756 12.164 29.3433C12.117 30.3635 12.4655 31.3612 13.1334 32.1181C13.8013 32.875 14.734 33.3294 15.7275 33.3819C18.5338 33.5158 21.4132 33.5747 24.3402 33.5701C27.2719 33.5798 30.1428 33.517 32.9529 33.3819C33.9464 33.3303 34.8796 32.8768 35.5483 32.1206C36.2169 31.3645 36.5666 30.3671 36.5208 29.3469C36.6363 27.5793 36.6892 25.817 36.6848 24.0503C36.6942 22.2847 36.641 20.5192 36.5252 18.7536ZM21.9783 28.9071V19.1799L28.9705 24.0412L21.9783 28.9071Z" fill="white"/>
</g>
<defs>
<clipPath id="clip0_61385:212">
<rect width="24.6857" height="19.0108" fill="white" transform="translate(12 14.5557)"/>
</clipPath>
</defs>
</svg>
